<mxfile host="app.diagrams.net" modified="2021-08-17T19:52:56.561Z" agent="5.0 (Windows NT 10.0; Win64; x64) AppleWebKit/537.36 (KHTML, like Gecko) Chrome/92.0.4515.131 Safari/537.36" etag="OpOcbSADzZR2ue_z3WQH" version="14.9.7" type="github">
  <diagram id="R2lEEEUBdFMjLlhIrx00" name="Page-1">
    <mxGraphModel dx="3105" dy="2547" grid="1" gridSize="10" guides="1" tooltips="1" connect="1" arrows="1" fold="1" page="1" pageScale="1" pageWidth="850" pageHeight="1100" math="0" shadow="0" extFonts="Permanent Marker^https://fonts.googleapis.com/css?family=Permanent+Marker">
      <root>
        <mxCell id="0" />
        <mxCell id="1" parent="0" />
        <mxCell id="lsUsgDh7sMTNp1GS7Mgj-9" value="fct_payments" style="shape=table;startSize=30;container=1;collapsible=1;childLayout=tableLayout;fixedRows=1;rowLines=0;fontStyle=1;align=center;resizeLast=1;fillColor=#A9C4EB;" vertex="1" parent="1">
          <mxGeometry x="200" y="-420" width="250" height="210" as="geometry" />
        </mxCell>
        <mxCell id="lsUsgDh7sMTNp1GS7Mgj-10" value="" style="shape=partialRectangle;collapsible=0;dropTarget=0;pointerEvents=0;fillColor=none;points=[[0,0.5],[1,0.5]];portConstraint=eastwest;top=0;left=0;right=0;bottom=1;" vertex="1" parent="lsUsgDh7sMTNp1GS7Mgj-9">
          <mxGeometry y="30" width="250" height="30" as="geometry" />
        </mxCell>
        <mxCell id="lsUsgDh7sMTNp1GS7Mgj-11" value="PK" style="shape=partialRectangle;overflow=hidden;connectable=0;fillColor=none;top=0;left=0;bottom=0;right=0;fontStyle=1;" vertex="1" parent="lsUsgDh7sMTNp1GS7Mgj-10">
          <mxGeometry width="30" height="30" as="geometry" />
        </mxCell>
        <mxCell id="lsUsgDh7sMTNp1GS7Mgj-12" value="payment_id" style="shape=partialRectangle;overflow=hidden;connectable=0;fillColor=none;top=0;left=0;bottom=0;right=0;align=left;spacingLeft=6;fontStyle=5;" vertex="1" parent="lsUsgDh7sMTNp1GS7Mgj-10">
          <mxGeometry x="30" width="220" height="30" as="geometry" />
        </mxCell>
        <mxCell id="lsUsgDh7sMTNp1GS7Mgj-13" value="" style="shape=partialRectangle;collapsible=0;dropTarget=0;pointerEvents=0;fillColor=none;points=[[0,0.5],[1,0.5]];portConstraint=eastwest;top=0;left=0;right=0;bottom=0;" vertex="1" parent="lsUsgDh7sMTNp1GS7Mgj-9">
          <mxGeometry y="60" width="250" height="30" as="geometry" />
        </mxCell>
        <mxCell id="lsUsgDh7sMTNp1GS7Mgj-14" value="" style="shape=partialRectangle;overflow=hidden;connectable=0;fillColor=none;top=0;left=0;bottom=0;right=0;" vertex="1" parent="lsUsgDh7sMTNp1GS7Mgj-13">
          <mxGeometry width="30" height="30" as="geometry" />
        </mxCell>
        <mxCell id="lsUsgDh7sMTNp1GS7Mgj-15" value="payment_dtm" style="shape=partialRectangle;overflow=hidden;connectable=0;fillColor=none;top=0;left=0;bottom=0;right=0;align=left;spacingLeft=6;" vertex="1" parent="lsUsgDh7sMTNp1GS7Mgj-13">
          <mxGeometry x="30" width="220" height="30" as="geometry" />
        </mxCell>
        <mxCell id="lsUsgDh7sMTNp1GS7Mgj-16" value="" style="shape=partialRectangle;collapsible=0;dropTarget=0;pointerEvents=0;fillColor=none;points=[[0,0.5],[1,0.5]];portConstraint=eastwest;top=0;left=0;right=0;bottom=0;" vertex="1" parent="lsUsgDh7sMTNp1GS7Mgj-9">
          <mxGeometry y="90" width="250" height="30" as="geometry" />
        </mxCell>
        <mxCell id="lsUsgDh7sMTNp1GS7Mgj-17" value="" style="shape=partialRectangle;overflow=hidden;connectable=0;fillColor=none;top=0;left=0;bottom=0;right=0;" vertex="1" parent="lsUsgDh7sMTNp1GS7Mgj-16">
          <mxGeometry width="30" height="30" as="geometry" />
        </mxCell>
        <mxCell id="lsUsgDh7sMTNp1GS7Mgj-18" value="client_id" style="shape=partialRectangle;overflow=hidden;connectable=0;fillColor=none;top=0;left=0;bottom=0;right=0;align=left;spacingLeft=6;" vertex="1" parent="lsUsgDh7sMTNp1GS7Mgj-16">
          <mxGeometry x="30" width="220" height="30" as="geometry" />
        </mxCell>
        <mxCell id="lsUsgDh7sMTNp1GS7Mgj-24" value="" style="shape=partialRectangle;collapsible=0;dropTarget=0;pointerEvents=0;fillColor=none;top=0;left=0;bottom=0;right=0;points=[[0,0.5],[1,0.5]];portConstraint=eastwest;" vertex="1" parent="lsUsgDh7sMTNp1GS7Mgj-9">
          <mxGeometry y="120" width="250" height="30" as="geometry" />
        </mxCell>
        <mxCell id="lsUsgDh7sMTNp1GS7Mgj-25" value="" style="shape=partialRectangle;connectable=0;fillColor=none;top=0;left=0;bottom=0;right=0;editable=1;overflow=hidden;" vertex="1" parent="lsUsgDh7sMTNp1GS7Mgj-24">
          <mxGeometry width="30" height="30" as="geometry" />
        </mxCell>
        <mxCell id="lsUsgDh7sMTNp1GS7Mgj-26" value="course_id" style="shape=partialRectangle;connectable=0;fillColor=none;top=0;left=0;bottom=0;right=0;align=left;spacingLeft=6;overflow=hidden;" vertex="1" parent="lsUsgDh7sMTNp1GS7Mgj-24">
          <mxGeometry x="30" width="220" height="30" as="geometry" />
        </mxCell>
        <mxCell id="lsUsgDh7sMTNp1GS7Mgj-32" value="" style="shape=partialRectangle;collapsible=0;dropTarget=0;pointerEvents=0;fillColor=none;top=0;left=0;bottom=0;right=0;points=[[0,0.5],[1,0.5]];portConstraint=eastwest;" vertex="1" parent="lsUsgDh7sMTNp1GS7Mgj-9">
          <mxGeometry y="150" width="250" height="30" as="geometry" />
        </mxCell>
        <mxCell id="lsUsgDh7sMTNp1GS7Mgj-33" value="" style="shape=partialRectangle;connectable=0;fillColor=none;top=0;left=0;bottom=0;right=0;editable=1;overflow=hidden;" vertex="1" parent="lsUsgDh7sMTNp1GS7Mgj-32">
          <mxGeometry width="30" height="30" as="geometry" />
        </mxCell>
        <mxCell id="lsUsgDh7sMTNp1GS7Mgj-34" value="payment_amount" style="shape=partialRectangle;connectable=0;fillColor=none;top=0;left=0;bottom=0;right=0;align=left;spacingLeft=6;overflow=hidden;" vertex="1" parent="lsUsgDh7sMTNp1GS7Mgj-32">
          <mxGeometry x="30" width="220" height="30" as="geometry" />
        </mxCell>
        <mxCell id="lsUsgDh7sMTNp1GS7Mgj-36" value="" style="shape=partialRectangle;collapsible=0;dropTarget=0;pointerEvents=0;fillColor=none;top=0;left=0;bottom=0;right=0;points=[[0,0.5],[1,0.5]];portConstraint=eastwest;" vertex="1" parent="lsUsgDh7sMTNp1GS7Mgj-9">
          <mxGeometry y="180" width="250" height="30" as="geometry" />
        </mxCell>
        <mxCell id="lsUsgDh7sMTNp1GS7Mgj-37" value="" style="shape=partialRectangle;connectable=0;fillColor=none;top=0;left=0;bottom=0;right=0;editable=1;overflow=hidden;" vertex="1" parent="lsUsgDh7sMTNp1GS7Mgj-36">
          <mxGeometry width="30" height="30" as="geometry" />
        </mxCell>
        <mxCell id="lsUsgDh7sMTNp1GS7Mgj-38" value="payment_type" style="shape=partialRectangle;connectable=0;fillColor=none;top=0;left=0;bottom=0;right=0;align=left;spacingLeft=6;overflow=hidden;" vertex="1" parent="lsUsgDh7sMTNp1GS7Mgj-36">
          <mxGeometry x="30" width="220" height="30" as="geometry" />
        </mxCell>
        <mxCell id="lsUsgDh7sMTNp1GS7Mgj-39" value="dim_client" style="shape=table;startSize=30;container=1;collapsible=1;childLayout=tableLayout;fixedRows=1;rowLines=0;fontStyle=1;align=center;resizeLast=1;fillColor=#B9E0A5;" vertex="1" parent="1">
          <mxGeometry x="90" y="-1070" width="180" height="310" as="geometry" />
        </mxCell>
        <mxCell id="lsUsgDh7sMTNp1GS7Mgj-40" value="" style="shape=partialRectangle;collapsible=0;dropTarget=0;pointerEvents=0;fillColor=none;top=0;left=0;bottom=1;right=0;points=[[0,0.5],[1,0.5]];portConstraint=eastwest;" vertex="1" parent="lsUsgDh7sMTNp1GS7Mgj-39">
          <mxGeometry y="30" width="180" height="30" as="geometry" />
        </mxCell>
        <mxCell id="lsUsgDh7sMTNp1GS7Mgj-41" value="PK" style="shape=partialRectangle;connectable=0;fillColor=none;top=0;left=0;bottom=0;right=0;fontStyle=1;overflow=hidden;" vertex="1" parent="lsUsgDh7sMTNp1GS7Mgj-40">
          <mxGeometry width="30" height="30" as="geometry" />
        </mxCell>
        <mxCell id="lsUsgDh7sMTNp1GS7Mgj-42" value="client_id" style="shape=partialRectangle;connectable=0;fillColor=none;top=0;left=0;bottom=0;right=0;align=left;spacingLeft=6;fontStyle=5;overflow=hidden;" vertex="1" parent="lsUsgDh7sMTNp1GS7Mgj-40">
          <mxGeometry x="30" width="150" height="30" as="geometry" />
        </mxCell>
        <mxCell id="lsUsgDh7sMTNp1GS7Mgj-156" value="" style="shape=partialRectangle;collapsible=0;dropTarget=0;pointerEvents=0;fillColor=none;top=0;left=0;bottom=0;right=0;points=[[0,0.5],[1,0.5]];portConstraint=eastwest;" vertex="1" parent="lsUsgDh7sMTNp1GS7Mgj-39">
          <mxGeometry y="60" width="180" height="30" as="geometry" />
        </mxCell>
        <mxCell id="lsUsgDh7sMTNp1GS7Mgj-157" value="" style="shape=partialRectangle;connectable=0;fillColor=none;top=0;left=0;bottom=0;right=0;editable=1;overflow=hidden;" vertex="1" parent="lsUsgDh7sMTNp1GS7Mgj-156">
          <mxGeometry width="30" height="30" as="geometry" />
        </mxCell>
        <mxCell id="lsUsgDh7sMTNp1GS7Mgj-158" value="name_fio" style="shape=partialRectangle;connectable=0;fillColor=none;top=0;left=0;bottom=0;right=0;align=left;spacingLeft=6;overflow=hidden;" vertex="1" parent="lsUsgDh7sMTNp1GS7Mgj-156">
          <mxGeometry x="30" width="150" height="30" as="geometry" />
        </mxCell>
        <mxCell id="lsUsgDh7sMTNp1GS7Mgj-43" value="" style="shape=partialRectangle;collapsible=0;dropTarget=0;pointerEvents=0;fillColor=none;top=0;left=0;bottom=0;right=0;points=[[0,0.5],[1,0.5]];portConstraint=eastwest;" vertex="1" parent="lsUsgDh7sMTNp1GS7Mgj-39">
          <mxGeometry y="90" width="180" height="30" as="geometry" />
        </mxCell>
        <mxCell id="lsUsgDh7sMTNp1GS7Mgj-44" value="" style="shape=partialRectangle;connectable=0;fillColor=none;top=0;left=0;bottom=0;right=0;editable=1;overflow=hidden;" vertex="1" parent="lsUsgDh7sMTNp1GS7Mgj-43">
          <mxGeometry width="30" height="30" as="geometry" />
        </mxCell>
        <mxCell id="lsUsgDh7sMTNp1GS7Mgj-45" value="age" style="shape=partialRectangle;connectable=0;fillColor=none;top=0;left=0;bottom=0;right=0;align=left;spacingLeft=6;overflow=hidden;" vertex="1" parent="lsUsgDh7sMTNp1GS7Mgj-43">
          <mxGeometry x="30" width="150" height="30" as="geometry" />
        </mxCell>
        <mxCell id="lsUsgDh7sMTNp1GS7Mgj-46" value="" style="shape=partialRectangle;collapsible=0;dropTarget=0;pointerEvents=0;fillColor=none;top=0;left=0;bottom=0;right=0;points=[[0,0.5],[1,0.5]];portConstraint=eastwest;" vertex="1" parent="lsUsgDh7sMTNp1GS7Mgj-39">
          <mxGeometry y="120" width="180" height="30" as="geometry" />
        </mxCell>
        <mxCell id="lsUsgDh7sMTNp1GS7Mgj-47" value="" style="shape=partialRectangle;connectable=0;fillColor=none;top=0;left=0;bottom=0;right=0;editable=1;overflow=hidden;" vertex="1" parent="lsUsgDh7sMTNp1GS7Mgj-46">
          <mxGeometry width="30" height="30" as="geometry" />
        </mxCell>
        <mxCell id="lsUsgDh7sMTNp1GS7Mgj-48" value="sex" style="shape=partialRectangle;connectable=0;fillColor=none;top=0;left=0;bottom=0;right=0;align=left;spacingLeft=6;overflow=hidden;" vertex="1" parent="lsUsgDh7sMTNp1GS7Mgj-46">
          <mxGeometry x="30" width="150" height="30" as="geometry" />
        </mxCell>
        <mxCell id="lsUsgDh7sMTNp1GS7Mgj-53" value="" style="shape=partialRectangle;collapsible=0;dropTarget=0;pointerEvents=0;fillColor=none;top=0;left=0;bottom=0;right=0;points=[[0,0.5],[1,0.5]];portConstraint=eastwest;" vertex="1" parent="lsUsgDh7sMTNp1GS7Mgj-39">
          <mxGeometry y="150" width="180" height="30" as="geometry" />
        </mxCell>
        <mxCell id="lsUsgDh7sMTNp1GS7Mgj-54" value="" style="shape=partialRectangle;connectable=0;fillColor=none;top=0;left=0;bottom=0;right=0;editable=1;overflow=hidden;" vertex="1" parent="lsUsgDh7sMTNp1GS7Mgj-53">
          <mxGeometry width="30" height="30" as="geometry" />
        </mxCell>
        <mxCell id="lsUsgDh7sMTNp1GS7Mgj-55" value="profession" style="shape=partialRectangle;connectable=0;fillColor=none;top=0;left=0;bottom=0;right=0;align=left;spacingLeft=6;overflow=hidden;" vertex="1" parent="lsUsgDh7sMTNp1GS7Mgj-53">
          <mxGeometry x="30" width="150" height="30" as="geometry" />
        </mxCell>
        <mxCell id="lsUsgDh7sMTNp1GS7Mgj-49" value="" style="shape=partialRectangle;collapsible=0;dropTarget=0;pointerEvents=0;fillColor=none;top=0;left=0;bottom=0;right=0;points=[[0,0.5],[1,0.5]];portConstraint=eastwest;" vertex="1" parent="lsUsgDh7sMTNp1GS7Mgj-39">
          <mxGeometry y="180" width="180" height="30" as="geometry" />
        </mxCell>
        <mxCell id="lsUsgDh7sMTNp1GS7Mgj-50" value="" style="shape=partialRectangle;connectable=0;fillColor=none;top=0;left=0;bottom=0;right=0;editable=1;overflow=hidden;" vertex="1" parent="lsUsgDh7sMTNp1GS7Mgj-49">
          <mxGeometry width="30" height="30" as="geometry" />
        </mxCell>
        <mxCell id="lsUsgDh7sMTNp1GS7Mgj-51" value="salary" style="shape=partialRectangle;connectable=0;fillColor=none;top=0;left=0;bottom=0;right=0;align=left;spacingLeft=6;overflow=hidden;" vertex="1" parent="lsUsgDh7sMTNp1GS7Mgj-49">
          <mxGeometry x="30" width="150" height="30" as="geometry" />
        </mxCell>
        <mxCell id="lsUsgDh7sMTNp1GS7Mgj-57" value="" style="shape=partialRectangle;collapsible=0;dropTarget=0;pointerEvents=0;fillColor=none;top=0;left=0;bottom=0;right=0;points=[[0,0.5],[1,0.5]];portConstraint=eastwest;" vertex="1" parent="lsUsgDh7sMTNp1GS7Mgj-39">
          <mxGeometry y="210" width="180" height="30" as="geometry" />
        </mxCell>
        <mxCell id="lsUsgDh7sMTNp1GS7Mgj-58" value="" style="shape=partialRectangle;connectable=0;fillColor=none;top=0;left=0;bottom=0;right=0;editable=1;overflow=hidden;" vertex="1" parent="lsUsgDh7sMTNp1GS7Mgj-57">
          <mxGeometry width="30" height="30" as="geometry" />
        </mxCell>
        <mxCell id="lsUsgDh7sMTNp1GS7Mgj-59" value="region" style="shape=partialRectangle;connectable=0;fillColor=none;top=0;left=0;bottom=0;right=0;align=left;spacingLeft=6;overflow=hidden;" vertex="1" parent="lsUsgDh7sMTNp1GS7Mgj-57">
          <mxGeometry x="30" width="150" height="30" as="geometry" />
        </mxCell>
        <mxCell id="lsUsgDh7sMTNp1GS7Mgj-65" value="" style="shape=partialRectangle;collapsible=0;dropTarget=0;pointerEvents=0;fillColor=none;top=0;left=0;bottom=0;right=0;points=[[0,0.5],[1,0.5]];portConstraint=eastwest;" vertex="1" parent="lsUsgDh7sMTNp1GS7Mgj-39">
          <mxGeometry y="240" width="180" height="30" as="geometry" />
        </mxCell>
        <mxCell id="lsUsgDh7sMTNp1GS7Mgj-66" value="PK" style="shape=partialRectangle;connectable=0;fillColor=none;top=0;left=0;bottom=0;right=0;editable=1;overflow=hidden;" vertex="1" parent="lsUsgDh7sMTNp1GS7Mgj-65">
          <mxGeometry width="30" height="30" as="geometry" />
        </mxCell>
        <mxCell id="lsUsgDh7sMTNp1GS7Mgj-67" value="valid_from_dtm" style="shape=partialRectangle;connectable=0;fillColor=none;top=0;left=0;bottom=0;right=0;align=left;spacingLeft=6;overflow=hidden;" vertex="1" parent="lsUsgDh7sMTNp1GS7Mgj-65">
          <mxGeometry x="30" width="150" height="30" as="geometry" />
        </mxCell>
        <mxCell id="lsUsgDh7sMTNp1GS7Mgj-61" value="" style="shape=partialRectangle;collapsible=0;dropTarget=0;pointerEvents=0;fillColor=none;top=0;left=0;bottom=0;right=0;points=[[0,0.5],[1,0.5]];portConstraint=eastwest;" vertex="1" parent="lsUsgDh7sMTNp1GS7Mgj-39">
          <mxGeometry y="270" width="180" height="30" as="geometry" />
        </mxCell>
        <mxCell id="lsUsgDh7sMTNp1GS7Mgj-62" value="" style="shape=partialRectangle;connectable=0;fillColor=none;top=0;left=0;bottom=0;right=0;editable=1;overflow=hidden;" vertex="1" parent="lsUsgDh7sMTNp1GS7Mgj-61">
          <mxGeometry width="30" height="30" as="geometry" />
        </mxCell>
        <mxCell id="lsUsgDh7sMTNp1GS7Mgj-63" value="valid_to_dtm" style="shape=partialRectangle;connectable=0;fillColor=none;top=0;left=0;bottom=0;right=0;align=left;spacingLeft=6;overflow=hidden;" vertex="1" parent="lsUsgDh7sMTNp1GS7Mgj-61">
          <mxGeometry x="30" width="150" height="30" as="geometry" />
        </mxCell>
        <mxCell id="lsUsgDh7sMTNp1GS7Mgj-70" value="dim_course" style="shape=table;startSize=30;container=1;collapsible=1;childLayout=tableLayout;fixedRows=1;rowLines=0;fontStyle=1;align=center;resizeLast=1;fillColor=#B9E0A5;" vertex="1" parent="1">
          <mxGeometry x="-310" y="-550" width="180" height="310" as="geometry" />
        </mxCell>
        <mxCell id="lsUsgDh7sMTNp1GS7Mgj-71" value="" style="shape=partialRectangle;collapsible=0;dropTarget=0;pointerEvents=0;fillColor=none;top=0;left=0;bottom=1;right=0;points=[[0,0.5],[1,0.5]];portConstraint=eastwest;" vertex="1" parent="lsUsgDh7sMTNp1GS7Mgj-70">
          <mxGeometry y="30" width="180" height="30" as="geometry" />
        </mxCell>
        <mxCell id="lsUsgDh7sMTNp1GS7Mgj-72" value="PK" style="shape=partialRectangle;connectable=0;fillColor=none;top=0;left=0;bottom=0;right=0;fontStyle=1;overflow=hidden;" vertex="1" parent="lsUsgDh7sMTNp1GS7Mgj-71">
          <mxGeometry width="30" height="30" as="geometry" />
        </mxCell>
        <mxCell id="lsUsgDh7sMTNp1GS7Mgj-73" value="course_id" style="shape=partialRectangle;connectable=0;fillColor=none;top=0;left=0;bottom=0;right=0;align=left;spacingLeft=6;fontStyle=5;overflow=hidden;" vertex="1" parent="lsUsgDh7sMTNp1GS7Mgj-71">
          <mxGeometry x="30" width="150" height="30" as="geometry" />
        </mxCell>
        <mxCell id="lsUsgDh7sMTNp1GS7Mgj-74" value="" style="shape=partialRectangle;collapsible=0;dropTarget=0;pointerEvents=0;fillColor=none;top=0;left=0;bottom=0;right=0;points=[[0,0.5],[1,0.5]];portConstraint=eastwest;" vertex="1" parent="lsUsgDh7sMTNp1GS7Mgj-70">
          <mxGeometry y="60" width="180" height="30" as="geometry" />
        </mxCell>
        <mxCell id="lsUsgDh7sMTNp1GS7Mgj-75" value="" style="shape=partialRectangle;connectable=0;fillColor=none;top=0;left=0;bottom=0;right=0;editable=1;overflow=hidden;" vertex="1" parent="lsUsgDh7sMTNp1GS7Mgj-74">
          <mxGeometry width="30" height="30" as="geometry" />
        </mxCell>
        <mxCell id="lsUsgDh7sMTNp1GS7Mgj-76" value="name" style="shape=partialRectangle;connectable=0;fillColor=none;top=0;left=0;bottom=0;right=0;align=left;spacingLeft=6;overflow=hidden;" vertex="1" parent="lsUsgDh7sMTNp1GS7Mgj-74">
          <mxGeometry x="30" width="150" height="30" as="geometry" />
        </mxCell>
        <mxCell id="lsUsgDh7sMTNp1GS7Mgj-77" value="" style="shape=partialRectangle;collapsible=0;dropTarget=0;pointerEvents=0;fillColor=none;top=0;left=0;bottom=0;right=0;points=[[0,0.5],[1,0.5]];portConstraint=eastwest;" vertex="1" parent="lsUsgDh7sMTNp1GS7Mgj-70">
          <mxGeometry y="90" width="180" height="30" as="geometry" />
        </mxCell>
        <mxCell id="lsUsgDh7sMTNp1GS7Mgj-78" value="" style="shape=partialRectangle;connectable=0;fillColor=none;top=0;left=0;bottom=0;right=0;editable=1;overflow=hidden;" vertex="1" parent="lsUsgDh7sMTNp1GS7Mgj-77">
          <mxGeometry width="30" height="30" as="geometry" />
        </mxCell>
        <mxCell id="lsUsgDh7sMTNp1GS7Mgj-79" value="duration_month" style="shape=partialRectangle;connectable=0;fillColor=none;top=0;left=0;bottom=0;right=0;align=left;spacingLeft=6;overflow=hidden;" vertex="1" parent="lsUsgDh7sMTNp1GS7Mgj-77">
          <mxGeometry x="30" width="150" height="30" as="geometry" />
        </mxCell>
        <mxCell id="lsUsgDh7sMTNp1GS7Mgj-80" value="" style="shape=partialRectangle;collapsible=0;dropTarget=0;pointerEvents=0;fillColor=none;top=0;left=0;bottom=0;right=0;points=[[0,0.5],[1,0.5]];portConstraint=eastwest;" vertex="1" parent="lsUsgDh7sMTNp1GS7Mgj-70">
          <mxGeometry y="120" width="180" height="30" as="geometry" />
        </mxCell>
        <mxCell id="lsUsgDh7sMTNp1GS7Mgj-81" value="" style="shape=partialRectangle;connectable=0;fillColor=none;top=0;left=0;bottom=0;right=0;editable=1;overflow=hidden;" vertex="1" parent="lsUsgDh7sMTNp1GS7Mgj-80">
          <mxGeometry width="30" height="30" as="geometry" />
        </mxCell>
        <mxCell id="lsUsgDh7sMTNp1GS7Mgj-82" value="difficulty" style="shape=partialRectangle;connectable=0;fillColor=none;top=0;left=0;bottom=0;right=0;align=left;spacingLeft=6;overflow=hidden;" vertex="1" parent="lsUsgDh7sMTNp1GS7Mgj-80">
          <mxGeometry x="30" width="150" height="30" as="geometry" />
        </mxCell>
        <mxCell id="lsUsgDh7sMTNp1GS7Mgj-83" value="" style="shape=partialRectangle;collapsible=0;dropTarget=0;pointerEvents=0;fillColor=none;top=0;left=0;bottom=0;right=0;points=[[0,0.5],[1,0.5]];portConstraint=eastwest;" vertex="1" parent="lsUsgDh7sMTNp1GS7Mgj-70">
          <mxGeometry y="150" width="180" height="30" as="geometry" />
        </mxCell>
        <mxCell id="lsUsgDh7sMTNp1GS7Mgj-84" value="" style="shape=partialRectangle;connectable=0;fillColor=none;top=0;left=0;bottom=0;right=0;editable=1;overflow=hidden;" vertex="1" parent="lsUsgDh7sMTNp1GS7Mgj-83">
          <mxGeometry width="30" height="30" as="geometry" />
        </mxCell>
        <mxCell id="lsUsgDh7sMTNp1GS7Mgj-85" value="for_whom" style="shape=partialRectangle;connectable=0;fillColor=none;top=0;left=0;bottom=0;right=0;align=left;spacingLeft=6;overflow=hidden;" vertex="1" parent="lsUsgDh7sMTNp1GS7Mgj-83">
          <mxGeometry x="30" width="150" height="30" as="geometry" />
        </mxCell>
        <mxCell id="lsUsgDh7sMTNp1GS7Mgj-86" value="" style="shape=partialRectangle;collapsible=0;dropTarget=0;pointerEvents=0;fillColor=none;top=0;left=0;bottom=0;right=0;points=[[0,0.5],[1,0.5]];portConstraint=eastwest;" vertex="1" parent="lsUsgDh7sMTNp1GS7Mgj-70">
          <mxGeometry y="180" width="180" height="30" as="geometry" />
        </mxCell>
        <mxCell id="lsUsgDh7sMTNp1GS7Mgj-87" value="" style="shape=partialRectangle;connectable=0;fillColor=none;top=0;left=0;bottom=0;right=0;editable=1;overflow=hidden;" vertex="1" parent="lsUsgDh7sMTNp1GS7Mgj-86">
          <mxGeometry width="30" height="30" as="geometry" />
        </mxCell>
        <mxCell id="lsUsgDh7sMTNp1GS7Mgj-88" value="pre_requirement_flg" style="shape=partialRectangle;connectable=0;fillColor=none;top=0;left=0;bottom=0;right=0;align=left;spacingLeft=6;overflow=hidden;" vertex="1" parent="lsUsgDh7sMTNp1GS7Mgj-86">
          <mxGeometry x="30" width="150" height="30" as="geometry" />
        </mxCell>
        <mxCell id="lsUsgDh7sMTNp1GS7Mgj-89" value="" style="shape=partialRectangle;collapsible=0;dropTarget=0;pointerEvents=0;fillColor=none;top=0;left=0;bottom=0;right=0;points=[[0,0.5],[1,0.5]];portConstraint=eastwest;" vertex="1" parent="lsUsgDh7sMTNp1GS7Mgj-70">
          <mxGeometry y="210" width="180" height="30" as="geometry" />
        </mxCell>
        <mxCell id="lsUsgDh7sMTNp1GS7Mgj-90" value="" style="shape=partialRectangle;connectable=0;fillColor=none;top=0;left=0;bottom=0;right=0;editable=1;overflow=hidden;" vertex="1" parent="lsUsgDh7sMTNp1GS7Mgj-89">
          <mxGeometry width="30" height="30" as="geometry" />
        </mxCell>
        <mxCell id="lsUsgDh7sMTNp1GS7Mgj-91" value="headliner_id" style="shape=partialRectangle;connectable=0;fillColor=none;top=0;left=0;bottom=0;right=0;align=left;spacingLeft=6;overflow=hidden;" vertex="1" parent="lsUsgDh7sMTNp1GS7Mgj-89">
          <mxGeometry x="30" width="150" height="30" as="geometry" />
        </mxCell>
        <mxCell id="lsUsgDh7sMTNp1GS7Mgj-92" value="" style="shape=partialRectangle;collapsible=0;dropTarget=0;pointerEvents=0;fillColor=none;top=0;left=0;bottom=0;right=0;points=[[0,0.5],[1,0.5]];portConstraint=eastwest;" vertex="1" parent="lsUsgDh7sMTNp1GS7Mgj-70">
          <mxGeometry y="240" width="180" height="30" as="geometry" />
        </mxCell>
        <mxCell id="lsUsgDh7sMTNp1GS7Mgj-93" value="PK" style="shape=partialRectangle;connectable=0;fillColor=none;top=0;left=0;bottom=0;right=0;editable=1;overflow=hidden;" vertex="1" parent="lsUsgDh7sMTNp1GS7Mgj-92">
          <mxGeometry width="30" height="30" as="geometry" />
        </mxCell>
        <mxCell id="lsUsgDh7sMTNp1GS7Mgj-94" value="valid_from_dtm" style="shape=partialRectangle;connectable=0;fillColor=none;top=0;left=0;bottom=0;right=0;align=left;spacingLeft=6;overflow=hidden;" vertex="1" parent="lsUsgDh7sMTNp1GS7Mgj-92">
          <mxGeometry x="30" width="150" height="30" as="geometry" />
        </mxCell>
        <mxCell id="lsUsgDh7sMTNp1GS7Mgj-95" value="" style="shape=partialRectangle;collapsible=0;dropTarget=0;pointerEvents=0;fillColor=none;top=0;left=0;bottom=0;right=0;points=[[0,0.5],[1,0.5]];portConstraint=eastwest;" vertex="1" parent="lsUsgDh7sMTNp1GS7Mgj-70">
          <mxGeometry y="270" width="180" height="30" as="geometry" />
        </mxCell>
        <mxCell id="lsUsgDh7sMTNp1GS7Mgj-96" value="" style="shape=partialRectangle;connectable=0;fillColor=none;top=0;left=0;bottom=0;right=0;editable=1;overflow=hidden;" vertex="1" parent="lsUsgDh7sMTNp1GS7Mgj-95">
          <mxGeometry width="30" height="30" as="geometry" />
        </mxCell>
        <mxCell id="lsUsgDh7sMTNp1GS7Mgj-97" value="valid_to_dtm" style="shape=partialRectangle;connectable=0;fillColor=none;top=0;left=0;bottom=0;right=0;align=left;spacingLeft=6;overflow=hidden;" vertex="1" parent="lsUsgDh7sMTNp1GS7Mgj-95">
          <mxGeometry x="30" width="150" height="30" as="geometry" />
        </mxCell>
        <mxCell id="lsUsgDh7sMTNp1GS7Mgj-98" value="" style="edgeStyle=entityRelationEdgeStyle;fontSize=12;html=1;endArrow=ERzeroToMany;startArrow=ERmandOne;exitX=1;exitY=0.5;exitDx=0;exitDy=0;entryX=0;entryY=0.5;entryDx=0;entryDy=0;" edge="1" parent="1" source="lsUsgDh7sMTNp1GS7Mgj-86" target="lsUsgDh7sMTNp1GS7Mgj-24">
          <mxGeometry width="100" height="100" relative="1" as="geometry">
            <mxPoint x="30" y="-643" as="sourcePoint" />
            <mxPoint x="190" y="-830" as="targetPoint" />
          </mxGeometry>
        </mxCell>
        <mxCell id="lsUsgDh7sMTNp1GS7Mgj-99" value="dim_lecturer" style="shape=table;startSize=30;container=1;collapsible=1;childLayout=tableLayout;fixedRows=1;rowLines=0;fontStyle=1;align=center;resizeLast=1;fillColor=#B9E0A5;" vertex="1" parent="1">
          <mxGeometry x="-840" y="-730" width="180" height="310" as="geometry" />
        </mxCell>
        <mxCell id="lsUsgDh7sMTNp1GS7Mgj-100" value="" style="shape=partialRectangle;collapsible=0;dropTarget=0;pointerEvents=0;fillColor=none;top=0;left=0;bottom=1;right=0;points=[[0,0.5],[1,0.5]];portConstraint=eastwest;" vertex="1" parent="lsUsgDh7sMTNp1GS7Mgj-99">
          <mxGeometry y="30" width="180" height="30" as="geometry" />
        </mxCell>
        <mxCell id="lsUsgDh7sMTNp1GS7Mgj-101" value="PK" style="shape=partialRectangle;connectable=0;fillColor=none;top=0;left=0;bottom=0;right=0;fontStyle=1;overflow=hidden;" vertex="1" parent="lsUsgDh7sMTNp1GS7Mgj-100">
          <mxGeometry width="30" height="30" as="geometry" />
        </mxCell>
        <mxCell id="lsUsgDh7sMTNp1GS7Mgj-102" value="lecturer_id" style="shape=partialRectangle;connectable=0;fillColor=none;top=0;left=0;bottom=0;right=0;align=left;spacingLeft=6;fontStyle=5;overflow=hidden;" vertex="1" parent="lsUsgDh7sMTNp1GS7Mgj-100">
          <mxGeometry x="30" width="150" height="30" as="geometry" />
        </mxCell>
        <mxCell id="lsUsgDh7sMTNp1GS7Mgj-103" value="" style="shape=partialRectangle;collapsible=0;dropTarget=0;pointerEvents=0;fillColor=none;top=0;left=0;bottom=0;right=0;points=[[0,0.5],[1,0.5]];portConstraint=eastwest;" vertex="1" parent="lsUsgDh7sMTNp1GS7Mgj-99">
          <mxGeometry y="60" width="180" height="30" as="geometry" />
        </mxCell>
        <mxCell id="lsUsgDh7sMTNp1GS7Mgj-104" value="" style="shape=partialRectangle;connectable=0;fillColor=none;top=0;left=0;bottom=0;right=0;editable=1;overflow=hidden;" vertex="1" parent="lsUsgDh7sMTNp1GS7Mgj-103">
          <mxGeometry width="30" height="30" as="geometry" />
        </mxCell>
        <mxCell id="lsUsgDh7sMTNp1GS7Mgj-105" value="name_fio" style="shape=partialRectangle;connectable=0;fillColor=none;top=0;left=0;bottom=0;right=0;align=left;spacingLeft=6;overflow=hidden;" vertex="1" parent="lsUsgDh7sMTNp1GS7Mgj-103">
          <mxGeometry x="30" width="150" height="30" as="geometry" />
        </mxCell>
        <mxCell id="lsUsgDh7sMTNp1GS7Mgj-106" value="" style="shape=partialRectangle;collapsible=0;dropTarget=0;pointerEvents=0;fillColor=none;top=0;left=0;bottom=0;right=0;points=[[0,0.5],[1,0.5]];portConstraint=eastwest;" vertex="1" parent="lsUsgDh7sMTNp1GS7Mgj-99">
          <mxGeometry y="90" width="180" height="30" as="geometry" />
        </mxCell>
        <mxCell id="lsUsgDh7sMTNp1GS7Mgj-107" value="" style="shape=partialRectangle;connectable=0;fillColor=none;top=0;left=0;bottom=0;right=0;editable=1;overflow=hidden;" vertex="1" parent="lsUsgDh7sMTNp1GS7Mgj-106">
          <mxGeometry width="30" height="30" as="geometry" />
        </mxCell>
        <mxCell id="lsUsgDh7sMTNp1GS7Mgj-108" value="age" style="shape=partialRectangle;connectable=0;fillColor=none;top=0;left=0;bottom=0;right=0;align=left;spacingLeft=6;overflow=hidden;" vertex="1" parent="lsUsgDh7sMTNp1GS7Mgj-106">
          <mxGeometry x="30" width="150" height="30" as="geometry" />
        </mxCell>
        <mxCell id="lsUsgDh7sMTNp1GS7Mgj-109" value="" style="shape=partialRectangle;collapsible=0;dropTarget=0;pointerEvents=0;fillColor=none;top=0;left=0;bottom=0;right=0;points=[[0,0.5],[1,0.5]];portConstraint=eastwest;" vertex="1" parent="lsUsgDh7sMTNp1GS7Mgj-99">
          <mxGeometry y="120" width="180" height="30" as="geometry" />
        </mxCell>
        <mxCell id="lsUsgDh7sMTNp1GS7Mgj-110" value="" style="shape=partialRectangle;connectable=0;fillColor=none;top=0;left=0;bottom=0;right=0;editable=1;overflow=hidden;" vertex="1" parent="lsUsgDh7sMTNp1GS7Mgj-109">
          <mxGeometry width="30" height="30" as="geometry" />
        </mxCell>
        <mxCell id="lsUsgDh7sMTNp1GS7Mgj-111" value="profession" style="shape=partialRectangle;connectable=0;fillColor=none;top=0;left=0;bottom=0;right=0;align=left;spacingLeft=6;overflow=hidden;" vertex="1" parent="lsUsgDh7sMTNp1GS7Mgj-109">
          <mxGeometry x="30" width="150" height="30" as="geometry" />
        </mxCell>
        <mxCell id="lsUsgDh7sMTNp1GS7Mgj-112" value="" style="shape=partialRectangle;collapsible=0;dropTarget=0;pointerEvents=0;fillColor=none;top=0;left=0;bottom=0;right=0;points=[[0,0.5],[1,0.5]];portConstraint=eastwest;" vertex="1" parent="lsUsgDh7sMTNp1GS7Mgj-99">
          <mxGeometry y="150" width="180" height="30" as="geometry" />
        </mxCell>
        <mxCell id="lsUsgDh7sMTNp1GS7Mgj-113" value="" style="shape=partialRectangle;connectable=0;fillColor=none;top=0;left=0;bottom=0;right=0;editable=1;overflow=hidden;" vertex="1" parent="lsUsgDh7sMTNp1GS7Mgj-112">
          <mxGeometry width="30" height="30" as="geometry" />
        </mxCell>
        <mxCell id="lsUsgDh7sMTNp1GS7Mgj-114" value="knowledge" style="shape=partialRectangle;connectable=0;fillColor=none;top=0;left=0;bottom=0;right=0;align=left;spacingLeft=6;overflow=hidden;" vertex="1" parent="lsUsgDh7sMTNp1GS7Mgj-112">
          <mxGeometry x="30" width="150" height="30" as="geometry" />
        </mxCell>
        <mxCell id="lsUsgDh7sMTNp1GS7Mgj-115" value="" style="shape=partialRectangle;collapsible=0;dropTarget=0;pointerEvents=0;fillColor=none;top=0;left=0;bottom=0;right=0;points=[[0,0.5],[1,0.5]];portConstraint=eastwest;" vertex="1" parent="lsUsgDh7sMTNp1GS7Mgj-99">
          <mxGeometry y="180" width="180" height="30" as="geometry" />
        </mxCell>
        <mxCell id="lsUsgDh7sMTNp1GS7Mgj-116" value="" style="shape=partialRectangle;connectable=0;fillColor=none;top=0;left=0;bottom=0;right=0;editable=1;overflow=hidden;" vertex="1" parent="lsUsgDh7sMTNp1GS7Mgj-115">
          <mxGeometry width="30" height="30" as="geometry" />
        </mxCell>
        <mxCell id="lsUsgDh7sMTNp1GS7Mgj-117" value="region" style="shape=partialRectangle;connectable=0;fillColor=none;top=0;left=0;bottom=0;right=0;align=left;spacingLeft=6;overflow=hidden;" vertex="1" parent="lsUsgDh7sMTNp1GS7Mgj-115">
          <mxGeometry x="30" width="150" height="30" as="geometry" />
        </mxCell>
        <mxCell id="lsUsgDh7sMTNp1GS7Mgj-118" value="" style="shape=partialRectangle;collapsible=0;dropTarget=0;pointerEvents=0;fillColor=none;top=0;left=0;bottom=0;right=0;points=[[0,0.5],[1,0.5]];portConstraint=eastwest;" vertex="1" parent="lsUsgDh7sMTNp1GS7Mgj-99">
          <mxGeometry y="210" width="180" height="30" as="geometry" />
        </mxCell>
        <mxCell id="lsUsgDh7sMTNp1GS7Mgj-119" value="" style="shape=partialRectangle;connectable=0;fillColor=none;top=0;left=0;bottom=0;right=0;editable=1;overflow=hidden;" vertex="1" parent="lsUsgDh7sMTNp1GS7Mgj-118">
          <mxGeometry width="30" height="30" as="geometry" />
        </mxCell>
        <mxCell id="lsUsgDh7sMTNp1GS7Mgj-120" value="salary_cls" style="shape=partialRectangle;connectable=0;fillColor=none;top=0;left=0;bottom=0;right=0;align=left;spacingLeft=6;overflow=hidden;" vertex="1" parent="lsUsgDh7sMTNp1GS7Mgj-118">
          <mxGeometry x="30" width="150" height="30" as="geometry" />
        </mxCell>
        <mxCell id="lsUsgDh7sMTNp1GS7Mgj-121" value="" style="shape=partialRectangle;collapsible=0;dropTarget=0;pointerEvents=0;fillColor=none;top=0;left=0;bottom=0;right=0;points=[[0,0.5],[1,0.5]];portConstraint=eastwest;" vertex="1" parent="lsUsgDh7sMTNp1GS7Mgj-99">
          <mxGeometry y="240" width="180" height="30" as="geometry" />
        </mxCell>
        <mxCell id="lsUsgDh7sMTNp1GS7Mgj-122" value="PK" style="shape=partialRectangle;connectable=0;fillColor=none;top=0;left=0;bottom=0;right=0;editable=1;overflow=hidden;" vertex="1" parent="lsUsgDh7sMTNp1GS7Mgj-121">
          <mxGeometry width="30" height="30" as="geometry" />
        </mxCell>
        <mxCell id="lsUsgDh7sMTNp1GS7Mgj-123" value="valid_from_dtm" style="shape=partialRectangle;connectable=0;fillColor=none;top=0;left=0;bottom=0;right=0;align=left;spacingLeft=6;overflow=hidden;" vertex="1" parent="lsUsgDh7sMTNp1GS7Mgj-121">
          <mxGeometry x="30" width="150" height="30" as="geometry" />
        </mxCell>
        <mxCell id="lsUsgDh7sMTNp1GS7Mgj-124" value="" style="shape=partialRectangle;collapsible=0;dropTarget=0;pointerEvents=0;fillColor=none;top=0;left=0;bottom=0;right=0;points=[[0,0.5],[1,0.5]];portConstraint=eastwest;" vertex="1" parent="lsUsgDh7sMTNp1GS7Mgj-99">
          <mxGeometry y="270" width="180" height="30" as="geometry" />
        </mxCell>
        <mxCell id="lsUsgDh7sMTNp1GS7Mgj-125" value="" style="shape=partialRectangle;connectable=0;fillColor=none;top=0;left=0;bottom=0;right=0;editable=1;overflow=hidden;" vertex="1" parent="lsUsgDh7sMTNp1GS7Mgj-124">
          <mxGeometry width="30" height="30" as="geometry" />
        </mxCell>
        <mxCell id="lsUsgDh7sMTNp1GS7Mgj-126" value="valid_to_dtm" style="shape=partialRectangle;connectable=0;fillColor=none;top=0;left=0;bottom=0;right=0;align=left;spacingLeft=6;overflow=hidden;" vertex="1" parent="lsUsgDh7sMTNp1GS7Mgj-124">
          <mxGeometry x="30" width="150" height="30" as="geometry" />
        </mxCell>
        <mxCell id="lsUsgDh7sMTNp1GS7Mgj-127" value="" style="edgeStyle=entityRelationEdgeStyle;fontSize=12;html=1;endArrow=ERzeroToMany;startArrow=ERmandOne;exitX=1;exitY=0.5;exitDx=0;exitDy=0;entryX=0;entryY=0.5;entryDx=0;entryDy=0;" edge="1" parent="1" source="lsUsgDh7sMTNp1GS7Mgj-115" target="lsUsgDh7sMTNp1GS7Mgj-89">
          <mxGeometry width="100" height="100" relative="1" as="geometry">
            <mxPoint x="-320" y="-925" as="sourcePoint" />
            <mxPoint x="-180" y="-575" as="targetPoint" />
          </mxGeometry>
        </mxCell>
        <mxCell id="lsUsgDh7sMTNp1GS7Mgj-159" value="" style="edgeStyle=entityRelationEdgeStyle;fontSize=12;html=1;endArrow=ERzeroToMany;startArrow=ERmandOne;exitX=0;exitY=0.5;exitDx=0;exitDy=0;entryX=1;entryY=0.5;entryDx=0;entryDy=0;" edge="1" parent="1" source="lsUsgDh7sMTNp1GS7Mgj-71" target="lsUsgDh7sMTNp1GS7Mgj-267">
          <mxGeometry width="100" height="100" relative="1" as="geometry">
            <mxPoint x="-290.00000000000045" y="-595" as="sourcePoint" />
            <mxPoint x="-380" y="-890" as="targetPoint" />
          </mxGeometry>
        </mxCell>
        <mxCell id="lsUsgDh7sMTNp1GS7Mgj-251" value="dim_lesson" style="shape=table;startSize=30;container=1;collapsible=1;childLayout=tableLayout;fixedRows=1;rowLines=0;fontStyle=1;align=center;resizeLast=1;fillColor=#B9E0A5;" vertex="1" parent="1">
          <mxGeometry x="-580" y="-1040" width="180" height="310" as="geometry" />
        </mxCell>
        <mxCell id="lsUsgDh7sMTNp1GS7Mgj-252" value="" style="shape=partialRectangle;collapsible=0;dropTarget=0;pointerEvents=0;fillColor=none;top=0;left=0;bottom=1;right=0;points=[[0,0.5],[1,0.5]];portConstraint=eastwest;" vertex="1" parent="lsUsgDh7sMTNp1GS7Mgj-251">
          <mxGeometry y="30" width="180" height="30" as="geometry" />
        </mxCell>
        <mxCell id="lsUsgDh7sMTNp1GS7Mgj-253" value="PK" style="shape=partialRectangle;connectable=0;fillColor=none;top=0;left=0;bottom=0;right=0;fontStyle=1;overflow=hidden;" vertex="1" parent="lsUsgDh7sMTNp1GS7Mgj-252">
          <mxGeometry width="30" height="30" as="geometry" />
        </mxCell>
        <mxCell id="lsUsgDh7sMTNp1GS7Mgj-254" value="lesson_id" style="shape=partialRectangle;connectable=0;fillColor=none;top=0;left=0;bottom=0;right=0;align=left;spacingLeft=6;fontStyle=5;overflow=hidden;" vertex="1" parent="lsUsgDh7sMTNp1GS7Mgj-252">
          <mxGeometry x="30" width="150" height="30" as="geometry" />
        </mxCell>
        <mxCell id="lsUsgDh7sMTNp1GS7Mgj-255" value="" style="shape=partialRectangle;collapsible=0;dropTarget=0;pointerEvents=0;fillColor=none;top=0;left=0;bottom=0;right=0;points=[[0,0.5],[1,0.5]];portConstraint=eastwest;" vertex="1" parent="lsUsgDh7sMTNp1GS7Mgj-251">
          <mxGeometry y="60" width="180" height="30" as="geometry" />
        </mxCell>
        <mxCell id="lsUsgDh7sMTNp1GS7Mgj-256" value="" style="shape=partialRectangle;connectable=0;fillColor=none;top=0;left=0;bottom=0;right=0;editable=1;overflow=hidden;" vertex="1" parent="lsUsgDh7sMTNp1GS7Mgj-255">
          <mxGeometry width="30" height="30" as="geometry" />
        </mxCell>
        <mxCell id="lsUsgDh7sMTNp1GS7Mgj-257" value="name" style="shape=partialRectangle;connectable=0;fillColor=none;top=0;left=0;bottom=0;right=0;align=left;spacingLeft=6;overflow=hidden;" vertex="1" parent="lsUsgDh7sMTNp1GS7Mgj-255">
          <mxGeometry x="30" width="150" height="30" as="geometry" />
        </mxCell>
        <mxCell id="lsUsgDh7sMTNp1GS7Mgj-258" value="" style="shape=partialRectangle;collapsible=0;dropTarget=0;pointerEvents=0;fillColor=none;top=0;left=0;bottom=0;right=0;points=[[0,0.5],[1,0.5]];portConstraint=eastwest;" vertex="1" parent="lsUsgDh7sMTNp1GS7Mgj-251">
          <mxGeometry y="90" width="180" height="30" as="geometry" />
        </mxCell>
        <mxCell id="lsUsgDh7sMTNp1GS7Mgj-259" value="" style="shape=partialRectangle;connectable=0;fillColor=none;top=0;left=0;bottom=0;right=0;editable=1;overflow=hidden;" vertex="1" parent="lsUsgDh7sMTNp1GS7Mgj-258">
          <mxGeometry width="30" height="30" as="geometry" />
        </mxCell>
        <mxCell id="lsUsgDh7sMTNp1GS7Mgj-260" value="duration_hours" style="shape=partialRectangle;connectable=0;fillColor=none;top=0;left=0;bottom=0;right=0;align=left;spacingLeft=6;overflow=hidden;" vertex="1" parent="lsUsgDh7sMTNp1GS7Mgj-258">
          <mxGeometry x="30" width="150" height="30" as="geometry" />
        </mxCell>
        <mxCell id="lsUsgDh7sMTNp1GS7Mgj-270" value="" style="shape=partialRectangle;collapsible=0;dropTarget=0;pointerEvents=0;fillColor=none;top=0;left=0;bottom=0;right=0;points=[[0,0.5],[1,0.5]];portConstraint=eastwest;" vertex="1" parent="lsUsgDh7sMTNp1GS7Mgj-251">
          <mxGeometry y="120" width="180" height="30" as="geometry" />
        </mxCell>
        <mxCell id="lsUsgDh7sMTNp1GS7Mgj-271" value="" style="shape=partialRectangle;connectable=0;fillColor=none;top=0;left=0;bottom=0;right=0;editable=1;overflow=hidden;" vertex="1" parent="lsUsgDh7sMTNp1GS7Mgj-270">
          <mxGeometry width="30" height="30" as="geometry" />
        </mxCell>
        <mxCell id="lsUsgDh7sMTNp1GS7Mgj-272" value="video_id" style="shape=partialRectangle;connectable=0;fillColor=none;top=0;left=0;bottom=0;right=0;align=left;spacingLeft=6;overflow=hidden;" vertex="1" parent="lsUsgDh7sMTNp1GS7Mgj-270">
          <mxGeometry x="30" width="150" height="30" as="geometry" />
        </mxCell>
        <mxCell id="lsUsgDh7sMTNp1GS7Mgj-267" value="" style="shape=partialRectangle;collapsible=0;dropTarget=0;pointerEvents=0;fillColor=none;top=0;left=0;bottom=0;right=0;points=[[0,0.5],[1,0.5]];portConstraint=eastwest;" vertex="1" parent="lsUsgDh7sMTNp1GS7Mgj-251">
          <mxGeometry y="150" width="180" height="30" as="geometry" />
        </mxCell>
        <mxCell id="lsUsgDh7sMTNp1GS7Mgj-268" value="" style="shape=partialRectangle;connectable=0;fillColor=none;top=0;left=0;bottom=0;right=0;editable=1;overflow=hidden;" vertex="1" parent="lsUsgDh7sMTNp1GS7Mgj-267">
          <mxGeometry width="30" height="30" as="geometry" />
        </mxCell>
        <mxCell id="lsUsgDh7sMTNp1GS7Mgj-269" value="course_id" style="shape=partialRectangle;connectable=0;fillColor=none;top=0;left=0;bottom=0;right=0;align=left;spacingLeft=6;overflow=hidden;" vertex="1" parent="lsUsgDh7sMTNp1GS7Mgj-267">
          <mxGeometry x="30" width="150" height="30" as="geometry" />
        </mxCell>
        <mxCell id="lsUsgDh7sMTNp1GS7Mgj-264" value="" style="shape=partialRectangle;collapsible=0;dropTarget=0;pointerEvents=0;fillColor=none;top=0;left=0;bottom=0;right=0;points=[[0,0.5],[1,0.5]];portConstraint=eastwest;" vertex="1" parent="lsUsgDh7sMTNp1GS7Mgj-251">
          <mxGeometry y="180" width="180" height="30" as="geometry" />
        </mxCell>
        <mxCell id="lsUsgDh7sMTNp1GS7Mgj-265" value="" style="shape=partialRectangle;connectable=0;fillColor=none;top=0;left=0;bottom=0;right=0;editable=1;overflow=hidden;" vertex="1" parent="lsUsgDh7sMTNp1GS7Mgj-264">
          <mxGeometry width="30" height="30" as="geometry" />
        </mxCell>
        <mxCell id="lsUsgDh7sMTNp1GS7Mgj-266" value="lecturer_id" style="shape=partialRectangle;connectable=0;fillColor=none;top=0;left=0;bottom=0;right=0;align=left;spacingLeft=6;overflow=hidden;" vertex="1" parent="lsUsgDh7sMTNp1GS7Mgj-264">
          <mxGeometry x="30" width="150" height="30" as="geometry" />
        </mxCell>
        <mxCell id="lsUsgDh7sMTNp1GS7Mgj-261" value="" style="shape=partialRectangle;collapsible=0;dropTarget=0;pointerEvents=0;fillColor=none;top=0;left=0;bottom=0;right=0;points=[[0,0.5],[1,0.5]];portConstraint=eastwest;" vertex="1" parent="lsUsgDh7sMTNp1GS7Mgj-251">
          <mxGeometry y="210" width="180" height="30" as="geometry" />
        </mxCell>
        <mxCell id="lsUsgDh7sMTNp1GS7Mgj-262" value="" style="shape=partialRectangle;connectable=0;fillColor=none;top=0;left=0;bottom=0;right=0;editable=1;overflow=hidden;" vertex="1" parent="lsUsgDh7sMTNp1GS7Mgj-261">
          <mxGeometry width="30" height="30" as="geometry" />
        </mxCell>
        <mxCell id="lsUsgDh7sMTNp1GS7Mgj-263" value="is_homework" style="shape=partialRectangle;connectable=0;fillColor=none;top=0;left=0;bottom=0;right=0;align=left;spacingLeft=6;overflow=hidden;" vertex="1" parent="lsUsgDh7sMTNp1GS7Mgj-261">
          <mxGeometry x="30" width="150" height="30" as="geometry" />
        </mxCell>
        <mxCell id="lsUsgDh7sMTNp1GS7Mgj-276" value="" style="shape=partialRectangle;collapsible=0;dropTarget=0;pointerEvents=0;fillColor=none;top=0;left=0;bottom=0;right=0;points=[[0,0.5],[1,0.5]];portConstraint=eastwest;" vertex="1" parent="lsUsgDh7sMTNp1GS7Mgj-251">
          <mxGeometry y="240" width="180" height="30" as="geometry" />
        </mxCell>
        <mxCell id="lsUsgDh7sMTNp1GS7Mgj-277" value="PK" style="shape=partialRectangle;connectable=0;fillColor=none;top=0;left=0;bottom=0;right=0;editable=1;overflow=hidden;" vertex="1" parent="lsUsgDh7sMTNp1GS7Mgj-276">
          <mxGeometry width="30" height="30" as="geometry" />
        </mxCell>
        <mxCell id="lsUsgDh7sMTNp1GS7Mgj-278" value="valid_from_dtm" style="shape=partialRectangle;connectable=0;fillColor=none;top=0;left=0;bottom=0;right=0;align=left;spacingLeft=6;overflow=hidden;" vertex="1" parent="lsUsgDh7sMTNp1GS7Mgj-276">
          <mxGeometry x="30" width="150" height="30" as="geometry" />
        </mxCell>
        <mxCell id="lsUsgDh7sMTNp1GS7Mgj-273" value="" style="shape=partialRectangle;collapsible=0;dropTarget=0;pointerEvents=0;fillColor=none;top=0;left=0;bottom=0;right=0;points=[[0,0.5],[1,0.5]];portConstraint=eastwest;" vertex="1" parent="lsUsgDh7sMTNp1GS7Mgj-251">
          <mxGeometry y="270" width="180" height="30" as="geometry" />
        </mxCell>
        <mxCell id="lsUsgDh7sMTNp1GS7Mgj-274" value="" style="shape=partialRectangle;connectable=0;fillColor=none;top=0;left=0;bottom=0;right=0;editable=1;overflow=hidden;" vertex="1" parent="lsUsgDh7sMTNp1GS7Mgj-273">
          <mxGeometry width="30" height="30" as="geometry" />
        </mxCell>
        <mxCell id="lsUsgDh7sMTNp1GS7Mgj-275" value="valid_to_dtm" style="shape=partialRectangle;connectable=0;fillColor=none;top=0;left=0;bottom=0;right=0;align=left;spacingLeft=6;overflow=hidden;" vertex="1" parent="lsUsgDh7sMTNp1GS7Mgj-273">
          <mxGeometry x="30" width="150" height="30" as="geometry" />
        </mxCell>
        <mxCell id="lsUsgDh7sMTNp1GS7Mgj-280" value="" style="edgeStyle=entityRelationEdgeStyle;fontSize=12;html=1;endArrow=ERzeroToMany;startArrow=ERmandOne;exitX=1;exitY=0.5;exitDx=0;exitDy=0;entryX=0;entryY=0.5;entryDx=0;entryDy=0;" edge="1" parent="1" source="lsUsgDh7sMTNp1GS7Mgj-109" target="lsUsgDh7sMTNp1GS7Mgj-255">
          <mxGeometry width="100" height="100" relative="1" as="geometry">
            <mxPoint x="-770" y="-650" as="sourcePoint" />
            <mxPoint x="-560" y="-560" as="targetPoint" />
          </mxGeometry>
        </mxCell>
        <mxCell id="lsUsgDh7sMTNp1GS7Mgj-281" value="fct_homeworks" style="shape=table;startSize=30;container=1;collapsible=1;childLayout=tableLayout;fixedRows=1;rowLines=0;fontStyle=1;align=center;resizeLast=1;fillColor=#A9C4EB;" vertex="1" parent="1">
          <mxGeometry x="-260" y="-1000" width="250" height="270" as="geometry" />
        </mxCell>
        <mxCell id="lsUsgDh7sMTNp1GS7Mgj-282" value="" style="shape=partialRectangle;collapsible=0;dropTarget=0;pointerEvents=0;fillColor=none;points=[[0,0.5],[1,0.5]];portConstraint=eastwest;top=0;left=0;right=0;bottom=1;" vertex="1" parent="lsUsgDh7sMTNp1GS7Mgj-281">
          <mxGeometry y="30" width="250" height="30" as="geometry" />
        </mxCell>
        <mxCell id="lsUsgDh7sMTNp1GS7Mgj-283" value="PK" style="shape=partialRectangle;overflow=hidden;connectable=0;fillColor=none;top=0;left=0;bottom=0;right=0;fontStyle=1;" vertex="1" parent="lsUsgDh7sMTNp1GS7Mgj-282">
          <mxGeometry width="30" height="30" as="geometry" />
        </mxCell>
        <mxCell id="lsUsgDh7sMTNp1GS7Mgj-284" value="homework_id" style="shape=partialRectangle;overflow=hidden;connectable=0;fillColor=none;top=0;left=0;bottom=0;right=0;align=left;spacingLeft=6;fontStyle=5;" vertex="1" parent="lsUsgDh7sMTNp1GS7Mgj-282">
          <mxGeometry x="30" width="220" height="30" as="geometry" />
        </mxCell>
        <mxCell id="lsUsgDh7sMTNp1GS7Mgj-285" value="" style="shape=partialRectangle;collapsible=0;dropTarget=0;pointerEvents=0;fillColor=none;points=[[0,0.5],[1,0.5]];portConstraint=eastwest;top=0;left=0;right=0;bottom=0;" vertex="1" parent="lsUsgDh7sMTNp1GS7Mgj-281">
          <mxGeometry y="60" width="250" height="30" as="geometry" />
        </mxCell>
        <mxCell id="lsUsgDh7sMTNp1GS7Mgj-286" value="PK" style="shape=partialRectangle;overflow=hidden;connectable=0;fillColor=none;top=0;left=0;bottom=0;right=0;" vertex="1" parent="lsUsgDh7sMTNp1GS7Mgj-285">
          <mxGeometry width="30" height="30" as="geometry" />
        </mxCell>
        <mxCell id="lsUsgDh7sMTNp1GS7Mgj-287" value="client_id" style="shape=partialRectangle;overflow=hidden;connectable=0;fillColor=none;top=0;left=0;bottom=0;right=0;align=left;spacingLeft=6;" vertex="1" parent="lsUsgDh7sMTNp1GS7Mgj-285">
          <mxGeometry x="30" width="220" height="30" as="geometry" />
        </mxCell>
        <mxCell id="lsUsgDh7sMTNp1GS7Mgj-307" value="" style="shape=partialRectangle;collapsible=0;dropTarget=0;pointerEvents=0;fillColor=none;top=0;left=0;bottom=0;right=0;points=[[0,0.5],[1,0.5]];portConstraint=eastwest;" vertex="1" parent="lsUsgDh7sMTNp1GS7Mgj-281">
          <mxGeometry y="90" width="250" height="30" as="geometry" />
        </mxCell>
        <mxCell id="lsUsgDh7sMTNp1GS7Mgj-308" value="" style="shape=partialRectangle;connectable=0;fillColor=none;top=0;left=0;bottom=0;right=0;editable=1;overflow=hidden;" vertex="1" parent="lsUsgDh7sMTNp1GS7Mgj-307">
          <mxGeometry width="30" height="30" as="geometry" />
        </mxCell>
        <mxCell id="lsUsgDh7sMTNp1GS7Mgj-309" value="lesson_id" style="shape=partialRectangle;connectable=0;fillColor=none;top=0;left=0;bottom=0;right=0;align=left;spacingLeft=6;overflow=hidden;" vertex="1" parent="lsUsgDh7sMTNp1GS7Mgj-307">
          <mxGeometry x="30" width="220" height="30" as="geometry" />
        </mxCell>
        <mxCell id="lsUsgDh7sMTNp1GS7Mgj-288" value="" style="shape=partialRectangle;collapsible=0;dropTarget=0;pointerEvents=0;fillColor=none;points=[[0,0.5],[1,0.5]];portConstraint=eastwest;top=0;left=0;right=0;bottom=0;" vertex="1" parent="lsUsgDh7sMTNp1GS7Mgj-281">
          <mxGeometry y="120" width="250" height="30" as="geometry" />
        </mxCell>
        <mxCell id="lsUsgDh7sMTNp1GS7Mgj-289" value="" style="shape=partialRectangle;overflow=hidden;connectable=0;fillColor=none;top=0;left=0;bottom=0;right=0;" vertex="1" parent="lsUsgDh7sMTNp1GS7Mgj-288">
          <mxGeometry width="30" height="30" as="geometry" />
        </mxCell>
        <mxCell id="lsUsgDh7sMTNp1GS7Mgj-290" value="result" style="shape=partialRectangle;overflow=hidden;connectable=0;fillColor=none;top=0;left=0;bottom=0;right=0;align=left;spacingLeft=6;" vertex="1" parent="lsUsgDh7sMTNp1GS7Mgj-288">
          <mxGeometry x="30" width="220" height="30" as="geometry" />
        </mxCell>
        <mxCell id="lsUsgDh7sMTNp1GS7Mgj-291" value="" style="shape=partialRectangle;collapsible=0;dropTarget=0;pointerEvents=0;fillColor=none;top=0;left=0;bottom=0;right=0;points=[[0,0.5],[1,0.5]];portConstraint=eastwest;" vertex="1" parent="lsUsgDh7sMTNp1GS7Mgj-281">
          <mxGeometry y="150" width="250" height="30" as="geometry" />
        </mxCell>
        <mxCell id="lsUsgDh7sMTNp1GS7Mgj-292" value="" style="shape=partialRectangle;connectable=0;fillColor=none;top=0;left=0;bottom=0;right=0;editable=1;overflow=hidden;" vertex="1" parent="lsUsgDh7sMTNp1GS7Mgj-291">
          <mxGeometry width="30" height="30" as="geometry" />
        </mxCell>
        <mxCell id="lsUsgDh7sMTNp1GS7Mgj-293" value="score" style="shape=partialRectangle;connectable=0;fillColor=none;top=0;left=0;bottom=0;right=0;align=left;spacingLeft=6;overflow=hidden;" vertex="1" parent="lsUsgDh7sMTNp1GS7Mgj-291">
          <mxGeometry x="30" width="220" height="30" as="geometry" />
        </mxCell>
        <mxCell id="lsUsgDh7sMTNp1GS7Mgj-300" value="" style="shape=partialRectangle;collapsible=0;dropTarget=0;pointerEvents=0;fillColor=none;top=0;left=0;bottom=0;right=0;points=[[0,0.5],[1,0.5]];portConstraint=eastwest;" vertex="1" parent="lsUsgDh7sMTNp1GS7Mgj-281">
          <mxGeometry y="180" width="250" height="30" as="geometry" />
        </mxCell>
        <mxCell id="lsUsgDh7sMTNp1GS7Mgj-301" value="" style="shape=partialRectangle;connectable=0;fillColor=none;top=0;left=0;bottom=0;right=0;editable=1;overflow=hidden;" vertex="1" parent="lsUsgDh7sMTNp1GS7Mgj-300">
          <mxGeometry width="30" height="30" as="geometry" />
        </mxCell>
        <mxCell id="lsUsgDh7sMTNp1GS7Mgj-302" value="is_late" style="shape=partialRectangle;connectable=0;fillColor=none;top=0;left=0;bottom=0;right=0;align=left;spacingLeft=6;overflow=hidden;" vertex="1" parent="lsUsgDh7sMTNp1GS7Mgj-300">
          <mxGeometry x="30" width="220" height="30" as="geometry" />
        </mxCell>
        <mxCell id="lsUsgDh7sMTNp1GS7Mgj-294" value="" style="shape=partialRectangle;collapsible=0;dropTarget=0;pointerEvents=0;fillColor=none;top=0;left=0;bottom=0;right=0;points=[[0,0.5],[1,0.5]];portConstraint=eastwest;" vertex="1" parent="lsUsgDh7sMTNp1GS7Mgj-281">
          <mxGeometry y="210" width="250" height="30" as="geometry" />
        </mxCell>
        <mxCell id="lsUsgDh7sMTNp1GS7Mgj-295" value="PK" style="shape=partialRectangle;connectable=0;fillColor=none;top=0;left=0;bottom=0;right=0;editable=1;overflow=hidden;" vertex="1" parent="lsUsgDh7sMTNp1GS7Mgj-294">
          <mxGeometry width="30" height="30" as="geometry" />
        </mxCell>
        <mxCell id="lsUsgDh7sMTNp1GS7Mgj-296" value="valid_from_dtm" style="shape=partialRectangle;connectable=0;fillColor=none;top=0;left=0;bottom=0;right=0;align=left;spacingLeft=6;overflow=hidden;" vertex="1" parent="lsUsgDh7sMTNp1GS7Mgj-294">
          <mxGeometry x="30" width="220" height="30" as="geometry" />
        </mxCell>
        <mxCell id="lsUsgDh7sMTNp1GS7Mgj-297" value="" style="shape=partialRectangle;collapsible=0;dropTarget=0;pointerEvents=0;fillColor=none;top=0;left=0;bottom=0;right=0;points=[[0,0.5],[1,0.5]];portConstraint=eastwest;" vertex="1" parent="lsUsgDh7sMTNp1GS7Mgj-281">
          <mxGeometry y="240" width="250" height="30" as="geometry" />
        </mxCell>
        <mxCell id="lsUsgDh7sMTNp1GS7Mgj-298" value="" style="shape=partialRectangle;connectable=0;fillColor=none;top=0;left=0;bottom=0;right=0;editable=1;overflow=hidden;" vertex="1" parent="lsUsgDh7sMTNp1GS7Mgj-297">
          <mxGeometry width="30" height="30" as="geometry" />
        </mxCell>
        <mxCell id="lsUsgDh7sMTNp1GS7Mgj-299" value="valid_to_dtm" style="shape=partialRectangle;connectable=0;fillColor=none;top=0;left=0;bottom=0;right=0;align=left;spacingLeft=6;overflow=hidden;" vertex="1" parent="lsUsgDh7sMTNp1GS7Mgj-297">
          <mxGeometry x="30" width="220" height="30" as="geometry" />
        </mxCell>
        <mxCell id="lsUsgDh7sMTNp1GS7Mgj-306" value="" style="edgeStyle=entityRelationEdgeStyle;fontSize=12;html=1;endArrow=ERzeroToMany;endFill=1;startArrow=ERzeroToMany;entryX=0;entryY=0.5;entryDx=0;entryDy=0;exitX=1;exitY=0.5;exitDx=0;exitDy=0;" edge="1" parent="1" source="lsUsgDh7sMTNp1GS7Mgj-258" target="lsUsgDh7sMTNp1GS7Mgj-282">
          <mxGeometry width="100" height="100" relative="1" as="geometry">
            <mxPoint x="40" y="-890" as="sourcePoint" />
            <mxPoint x="140" y="-990" as="targetPoint" />
          </mxGeometry>
        </mxCell>
        <mxCell id="lsUsgDh7sMTNp1GS7Mgj-312" value="" style="edgeStyle=entityRelationEdgeStyle;fontSize=12;html=1;endArrow=ERzeroToMany;endFill=1;startArrow=ERzeroToMany;entryX=0;entryY=0.5;entryDx=0;entryDy=0;exitX=1;exitY=0.5;exitDx=0;exitDy=0;" edge="1" parent="1" source="lsUsgDh7sMTNp1GS7Mgj-285" target="lsUsgDh7sMTNp1GS7Mgj-156">
          <mxGeometry width="100" height="100" relative="1" as="geometry">
            <mxPoint x="200" y="-925" as="sourcePoint" />
            <mxPoint x="510" y="-1010" as="targetPoint" />
          </mxGeometry>
        </mxCell>
      </root>
    </mxGraphModel>
  </diagram>
</mxfile>
